<mxfile host="app.diagrams.net" agent="Mozilla/5.0 (Windows NT 10.0; Win64; x64) AppleWebKit/537.36 (KHTML, like Gecko) Chrome/128.0.0.0 Safari/537.36" version="24.7.12">
  <diagram name="Page-1" id="JbjtUo6P3Enj2ad2ZrGh">
    <mxGraphModel dx="1730" dy="1600" grid="1" gridSize="10" guides="1" tooltips="1" connect="1" arrows="1" fold="1" page="1" pageScale="1" pageWidth="850" pageHeight="1100" math="0" shadow="0">
      <root>
        <mxCell id="0" />
        <mxCell id="1" parent="0" />
        <mxCell id="yFoctUdli1aIZpsdgg2G-4" value="" style="edgeStyle=orthogonalEdgeStyle;rounded=0;orthogonalLoop=1;jettySize=auto;html=1;" parent="1" source="yFoctUdli1aIZpsdgg2G-1" target="yFoctUdli1aIZpsdgg2G-3" edge="1">
          <mxGeometry relative="1" as="geometry" />
        </mxCell>
        <mxCell id="yFoctUdli1aIZpsdgg2G-1" value="Start" style="ellipse;whiteSpace=wrap;html=1;" parent="1" vertex="1">
          <mxGeometry x="-50" y="190" width="100" height="70" as="geometry" />
        </mxCell>
        <mxCell id="yFoctUdli1aIZpsdgg2G-6" value="" style="edgeStyle=orthogonalEdgeStyle;rounded=0;orthogonalLoop=1;jettySize=auto;html=1;" parent="1" source="yFoctUdli1aIZpsdgg2G-3" target="yFoctUdli1aIZpsdgg2G-5" edge="1">
          <mxGeometry relative="1" as="geometry" />
        </mxCell>
        <mxCell id="KnhFS-2OTnWdUzXn2by6-4" style="edgeStyle=orthogonalEdgeStyle;rounded=0;orthogonalLoop=1;jettySize=auto;html=1;entryX=1;entryY=0.5;entryDx=0;entryDy=0;" parent="1" source="yFoctUdli1aIZpsdgg2G-3" target="KnhFS-2OTnWdUzXn2by6-1" edge="1">
          <mxGeometry relative="1" as="geometry">
            <Array as="points">
              <mxPoint x="130" y="385" />
            </Array>
          </mxGeometry>
        </mxCell>
        <mxCell id="yFoctUdli1aIZpsdgg2G-3" value="Home Tab" style="whiteSpace=wrap;html=1;" parent="1" vertex="1">
          <mxGeometry x="90" y="200" width="120" height="50" as="geometry" />
        </mxCell>
        <mxCell id="yFoctUdli1aIZpsdgg2G-9" style="edgeStyle=orthogonalEdgeStyle;rounded=0;orthogonalLoop=1;jettySize=auto;html=1;entryX=0.5;entryY=0;entryDx=0;entryDy=0;" parent="1" source="yFoctUdli1aIZpsdgg2G-5" target="yFoctUdli1aIZpsdgg2G-7" edge="1">
          <mxGeometry relative="1" as="geometry" />
        </mxCell>
        <mxCell id="yFoctUdli1aIZpsdgg2G-13" value="" style="edgeStyle=orthogonalEdgeStyle;rounded=0;orthogonalLoop=1;jettySize=auto;html=1;" parent="1" source="yFoctUdli1aIZpsdgg2G-5" target="yFoctUdli1aIZpsdgg2G-12" edge="1">
          <mxGeometry relative="1" as="geometry" />
        </mxCell>
        <mxCell id="yFoctUdli1aIZpsdgg2G-5" value="Are you a Administrator?" style="rhombus;whiteSpace=wrap;html=1;" parent="1" vertex="1">
          <mxGeometry x="320" y="181.25" width="130" height="87.5" as="geometry" />
        </mxCell>
        <mxCell id="yFoctUdli1aIZpsdgg2G-27" style="edgeStyle=orthogonalEdgeStyle;rounded=0;orthogonalLoop=1;jettySize=auto;html=1;entryX=0.5;entryY=0;entryDx=0;entryDy=0;" parent="1" source="yFoctUdli1aIZpsdgg2G-7" target="yFoctUdli1aIZpsdgg2G-16" edge="1">
          <mxGeometry relative="1" as="geometry" />
        </mxCell>
        <mxCell id="yFoctUdli1aIZpsdgg2G-61" style="edgeStyle=orthogonalEdgeStyle;rounded=0;orthogonalLoop=1;jettySize=auto;html=1;entryX=0.75;entryY=0;entryDx=0;entryDy=0;" parent="1" source="yFoctUdli1aIZpsdgg2G-7" target="yFoctUdli1aIZpsdgg2G-28" edge="1">
          <mxGeometry relative="1" as="geometry">
            <Array as="points">
              <mxPoint x="180" y="340" />
            </Array>
          </mxGeometry>
        </mxCell>
        <mxCell id="yFoctUdli1aIZpsdgg2G-7" value="Remedy Pending Changes Tab" style="whiteSpace=wrap;html=1;" parent="1" vertex="1">
          <mxGeometry x="325" y="330" width="120" height="60" as="geometry" />
        </mxCell>
        <mxCell id="yFoctUdli1aIZpsdgg2G-32" value="" style="edgeStyle=orthogonalEdgeStyle;rounded=0;orthogonalLoop=1;jettySize=auto;html=1;" parent="1" source="yFoctUdli1aIZpsdgg2G-12" target="yFoctUdli1aIZpsdgg2G-31" edge="1">
          <mxGeometry relative="1" as="geometry" />
        </mxCell>
        <mxCell id="yFoctUdli1aIZpsdgg2G-60" style="edgeStyle=orthogonalEdgeStyle;rounded=0;orthogonalLoop=1;jettySize=auto;html=1;entryX=0.75;entryY=1;entryDx=0;entryDy=0;" parent="1" source="yFoctUdli1aIZpsdgg2G-12" target="yFoctUdli1aIZpsdgg2G-57" edge="1">
          <mxGeometry relative="1" as="geometry">
            <Array as="points">
              <mxPoint x="170" y="120" />
            </Array>
          </mxGeometry>
        </mxCell>
        <mxCell id="yFoctUdli1aIZpsdgg2G-12" value="Remedies Tab" style="whiteSpace=wrap;html=1;" parent="1" vertex="1">
          <mxGeometry x="325" y="80" width="120" height="60" as="geometry" />
        </mxCell>
        <mxCell id="yFoctUdli1aIZpsdgg2G-14" value="Yes" style="text;html=1;align=center;verticalAlign=middle;whiteSpace=wrap;rounded=0;" parent="1" vertex="1">
          <mxGeometry x="350" y="280" width="50" height="30" as="geometry" />
        </mxCell>
        <mxCell id="yFoctUdli1aIZpsdgg2G-15" value="No" style="text;html=1;align=center;verticalAlign=middle;whiteSpace=wrap;rounded=0;" parent="1" vertex="1">
          <mxGeometry x="350" y="151.25" width="50" height="30" as="geometry" />
        </mxCell>
        <mxCell id="yFoctUdli1aIZpsdgg2G-19" value="" style="edgeStyle=orthogonalEdgeStyle;rounded=0;orthogonalLoop=1;jettySize=auto;html=1;" parent="1" source="yFoctUdli1aIZpsdgg2G-16" target="yFoctUdli1aIZpsdgg2G-18" edge="1">
          <mxGeometry relative="1" as="geometry">
            <Array as="points">
              <mxPoint x="510" y="480" />
              <mxPoint x="420" y="480" />
            </Array>
          </mxGeometry>
        </mxCell>
        <mxCell id="yFoctUdli1aIZpsdgg2G-16" value="Next" style="whiteSpace=wrap;html=1;" parent="1" vertex="1">
          <mxGeometry x="450" y="400" width="120" height="60" as="geometry" />
        </mxCell>
        <mxCell id="yFoctUdli1aIZpsdgg2G-21" value="" style="edgeStyle=orthogonalEdgeStyle;rounded=0;orthogonalLoop=1;jettySize=auto;html=1;" parent="1" source="yFoctUdli1aIZpsdgg2G-18" target="yFoctUdli1aIZpsdgg2G-20" edge="1">
          <mxGeometry relative="1" as="geometry">
            <Array as="points">
              <mxPoint x="360" y="480" />
              <mxPoint x="265" y="480" />
            </Array>
          </mxGeometry>
        </mxCell>
        <mxCell id="yFoctUdli1aIZpsdgg2G-29" value="" style="edgeStyle=orthogonalEdgeStyle;rounded=0;orthogonalLoop=1;jettySize=auto;html=1;" parent="1" source="yFoctUdli1aIZpsdgg2G-18" target="yFoctUdli1aIZpsdgg2G-28" edge="1">
          <mxGeometry relative="1" as="geometry" />
        </mxCell>
        <mxCell id="yFoctUdli1aIZpsdgg2G-18" value="Admin Tab" style="whiteSpace=wrap;html=1;" parent="1" vertex="1">
          <mxGeometry x="320" y="500" width="130" height="60" as="geometry" />
        </mxCell>
        <mxCell id="yFoctUdli1aIZpsdgg2G-26" style="edgeStyle=orthogonalEdgeStyle;rounded=0;orthogonalLoop=1;jettySize=auto;html=1;entryX=0;entryY=0.5;entryDx=0;entryDy=0;" parent="1" source="yFoctUdli1aIZpsdgg2G-20" target="yFoctUdli1aIZpsdgg2G-7" edge="1">
          <mxGeometry relative="1" as="geometry" />
        </mxCell>
        <mxCell id="yFoctUdli1aIZpsdgg2G-20" value="Back" style="whiteSpace=wrap;html=1;" parent="1" vertex="1">
          <mxGeometry x="205" y="400" width="120" height="60" as="geometry" />
        </mxCell>
        <mxCell id="yFoctUdli1aIZpsdgg2G-30" style="edgeStyle=orthogonalEdgeStyle;rounded=0;orthogonalLoop=1;jettySize=auto;html=1;" parent="1" source="yFoctUdli1aIZpsdgg2G-28" target="yFoctUdli1aIZpsdgg2G-3" edge="1">
          <mxGeometry relative="1" as="geometry" />
        </mxCell>
        <mxCell id="yFoctUdli1aIZpsdgg2G-28" value="Home" style="whiteSpace=wrap;html=1;" parent="1" vertex="1">
          <mxGeometry x="90" y="500" width="120" height="60" as="geometry" />
        </mxCell>
        <mxCell id="yFoctUdli1aIZpsdgg2G-41" style="edgeStyle=orthogonalEdgeStyle;rounded=0;orthogonalLoop=1;jettySize=auto;html=1;entryX=1;entryY=0.5;entryDx=0;entryDy=0;" parent="1" source="yFoctUdli1aIZpsdgg2G-31" target="yFoctUdli1aIZpsdgg2G-39" edge="1">
          <mxGeometry relative="1" as="geometry">
            <Array as="points">
              <mxPoint x="520" y="-30" />
              <mxPoint x="460" y="-30" />
            </Array>
          </mxGeometry>
        </mxCell>
        <mxCell id="yFoctUdli1aIZpsdgg2G-31" value="Next" style="whiteSpace=wrap;html=1;" parent="1" vertex="1">
          <mxGeometry x="460" width="120" height="60" as="geometry" />
        </mxCell>
        <mxCell id="yFoctUdli1aIZpsdgg2G-37" style="edgeStyle=orthogonalEdgeStyle;rounded=0;orthogonalLoop=1;jettySize=auto;html=1;entryX=0;entryY=0.5;entryDx=0;entryDy=0;" parent="1" source="yFoctUdli1aIZpsdgg2G-33" target="yFoctUdli1aIZpsdgg2G-12" edge="1">
          <mxGeometry relative="1" as="geometry" />
        </mxCell>
        <mxCell id="yFoctUdli1aIZpsdgg2G-33" value="Back" style="whiteSpace=wrap;html=1;" parent="1" vertex="1">
          <mxGeometry x="210" width="120" height="60" as="geometry" />
        </mxCell>
        <mxCell id="yFoctUdli1aIZpsdgg2G-42" style="edgeStyle=orthogonalEdgeStyle;rounded=0;orthogonalLoop=1;jettySize=auto;html=1;" parent="1" source="yFoctUdli1aIZpsdgg2G-39" edge="1">
          <mxGeometry relative="1" as="geometry">
            <mxPoint x="260" as="targetPoint" />
            <Array as="points">
              <mxPoint x="261" y="-30" />
            </Array>
          </mxGeometry>
        </mxCell>
        <mxCell id="yFoctUdli1aIZpsdgg2G-53" style="edgeStyle=orthogonalEdgeStyle;rounded=0;orthogonalLoop=1;jettySize=auto;html=1;" parent="1" edge="1">
          <mxGeometry relative="1" as="geometry">
            <mxPoint x="530" y="-100" as="targetPoint" />
            <mxPoint x="440" y="-40" as="sourcePoint" />
            <Array as="points">
              <mxPoint x="531" y="-40" />
            </Array>
          </mxGeometry>
        </mxCell>
        <mxCell id="yFoctUdli1aIZpsdgg2G-58" style="edgeStyle=orthogonalEdgeStyle;rounded=0;orthogonalLoop=1;jettySize=auto;html=1;entryX=1;entryY=0.5;entryDx=0;entryDy=0;" parent="1" source="yFoctUdli1aIZpsdgg2G-39" target="yFoctUdli1aIZpsdgg2G-57" edge="1">
          <mxGeometry relative="1" as="geometry" />
        </mxCell>
        <mxCell id="yFoctUdli1aIZpsdgg2G-39" value="Add Remedies Tab" style="whiteSpace=wrap;html=1;" parent="1" vertex="1">
          <mxGeometry x="330" y="-70" width="130" height="60" as="geometry" />
        </mxCell>
        <mxCell id="yFoctUdli1aIZpsdgg2G-43" style="edgeStyle=orthogonalEdgeStyle;rounded=0;orthogonalLoop=1;jettySize=auto;html=1;entryX=1;entryY=0.5;entryDx=0;entryDy=0;" parent="1" source="yFoctUdli1aIZpsdgg2G-44" target="yFoctUdli1aIZpsdgg2G-47" edge="1">
          <mxGeometry relative="1" as="geometry" />
        </mxCell>
        <mxCell id="yFoctUdli1aIZpsdgg2G-44" value="Next" style="whiteSpace=wrap;html=1;" parent="1" vertex="1">
          <mxGeometry x="460" y="-160" width="120" height="60" as="geometry" />
        </mxCell>
        <mxCell id="yFoctUdli1aIZpsdgg2G-52" style="edgeStyle=orthogonalEdgeStyle;rounded=0;orthogonalLoop=1;jettySize=auto;html=1;entryX=0;entryY=0.25;entryDx=0;entryDy=0;" parent="1" source="yFoctUdli1aIZpsdgg2G-45" target="yFoctUdli1aIZpsdgg2G-39" edge="1">
          <mxGeometry relative="1" as="geometry" />
        </mxCell>
        <mxCell id="yFoctUdli1aIZpsdgg2G-45" value="Back" style="whiteSpace=wrap;html=1;" parent="1" vertex="1">
          <mxGeometry x="210" y="-150" width="120" height="60" as="geometry" />
        </mxCell>
        <mxCell id="yFoctUdli1aIZpsdgg2G-46" style="edgeStyle=orthogonalEdgeStyle;rounded=0;orthogonalLoop=1;jettySize=auto;html=1;" parent="1" source="yFoctUdli1aIZpsdgg2G-47" edge="1">
          <mxGeometry relative="1" as="geometry">
            <mxPoint x="260" y="-150" as="targetPoint" />
          </mxGeometry>
        </mxCell>
        <mxCell id="yFoctUdli1aIZpsdgg2G-56" style="edgeStyle=orthogonalEdgeStyle;rounded=0;orthogonalLoop=1;jettySize=auto;html=1;" parent="1" edge="1">
          <mxGeometry relative="1" as="geometry">
            <mxPoint x="140" y="-70" as="targetPoint" />
            <mxPoint x="330" y="-220" as="sourcePoint" />
          </mxGeometry>
        </mxCell>
        <mxCell id="yFoctUdli1aIZpsdgg2G-47" value="Remedy Usage Tab" style="whiteSpace=wrap;html=1;" parent="1" vertex="1">
          <mxGeometry x="330" y="-230" width="130" height="60" as="geometry" />
        </mxCell>
        <mxCell id="yFoctUdli1aIZpsdgg2G-57" value="Home" style="whiteSpace=wrap;html=1;" parent="1" vertex="1">
          <mxGeometry x="80" y="-70" width="120" height="60" as="geometry" />
        </mxCell>
        <mxCell id="yFoctUdli1aIZpsdgg2G-59" style="edgeStyle=orthogonalEdgeStyle;rounded=0;orthogonalLoop=1;jettySize=auto;html=1;entryX=0.417;entryY=-0.08;entryDx=0;entryDy=0;entryPerimeter=0;" parent="1" source="yFoctUdli1aIZpsdgg2G-57" target="yFoctUdli1aIZpsdgg2G-3" edge="1">
          <mxGeometry relative="1" as="geometry" />
        </mxCell>
        <mxCell id="KnhFS-2OTnWdUzXn2by6-1" value="End" style="ellipse;whiteSpace=wrap;html=1;" parent="1" vertex="1">
          <mxGeometry x="-50" y="350" width="100" height="70" as="geometry" />
        </mxCell>
      </root>
    </mxGraphModel>
  </diagram>
</mxfile>
